<?xml version="1.0" encoding="UTF-8" standalone="no"?><!DOCTYPE svg PUBLIC "-//W3C//DTD SVG 1.1//EN" "http://www.w3.org/Graphics/SVG/1.1/DTD/svg11.dtd"><svg width="100%" height="100%" viewBox="0 0 3749 4969" version="1.1" xmlns="http://www.w3.org/2000/svg" xmlns:xlink="http://www.w3.org/1999/xlink" xml:space="preserve" xmlns:serif="http://www.serif.com/" style="fill-rule:evenodd;clip-rule:evenodd;stroke-linecap:round;stroke-linejoin:round;stroke-miterlimit:1.5;"><rect x="-0" y="-0" width="3748.33" height="4968.75" style="stroke:#000;stroke-width:12.28px;"/><rect x="687.505" y="1017.18" width="0" height="810.723" style="stroke:#fff;stroke-width:8.33px;"/><rect x="984.383" y="1017.18" width="0" height="810.723" style="stroke:#fff;stroke-width:8.33px;"/><rect x="1717.2" y="666.382" width="9.375" height="1164.64" style="fill:#fff;"/><rect x="1717.2" y="666.382" width="9.375" height="1164.64" style="fill:#fff;"/><rect x="2018.77" y="666.382" width="9.375" height="1164.64" style="fill:#fff;"/><rect x="2018.77" y="666.382" width="9.375" height="1164.64" style="fill:#fff;"/><rect x="2793" y="765.631" width="218.752" height="251.545" style="stroke:#fff;stroke-width:8.33px;"/><rect x="875.007" y="764.049" width="218.752" height="253.127" style="stroke:#fff;stroke-width:8.33px;"/><rect x="578.13" y="764.049" width="218.752" height="253.127" style="stroke:#fff;stroke-width:8.33px;"/><path d="M3233.55,1896.89c0,-34.518 -27.982,-62.5 -62.5,-62.5c-364.903,-0 -2216.37,-0 -2581.27,-0c-34.518,-0 -62.5,27.982 -62.5,62.5c-0,116.353 -0,364.901 -0,481.255c-0,34.517 27.982,62.499 62.5,62.499c364.903,0 2216.37,0 2581.27,0c34.518,0 62.5,-27.982 62.5,-62.499c0,-116.354 0,-364.902 0,-481.255Z" style="fill:none;stroke:#009696;stroke-width:12.5px;"/><rect x="2976.59" y="2768.02" width="218.752" height="253.127" style="stroke:#fff;stroke-width:8.33px;"/><rect x="2631.98" y="2768.02" width="218.752" height="253.127" style="stroke:#fff;stroke-width:8.33px;"/><rect x="2606.27" y="3096.15" width="270.172" height="265.627" style="stroke:#fff;stroke-width:8.33px;"/><rect x="2957.13" y="3096.15" width="270.172" height="265.627" style="stroke:#fff;stroke-width:8.33px;"/><rect x="1609.39" y="402.337" width="225.002" height="260.92" style="fill:none;stroke:#fff;stroke-width:8.33px;"/><rect x="1906.27" y="405.462" width="225.002" height="260.92" style="fill:none;stroke:#fff;stroke-width:8.33px;"/><rect x="2897.69" y="1017.18" width="9.375" height="260.959" style="fill:#fff;"/><rect x="2897.69" y="1539.06" width="9.375" height="289.085" style="fill:#fff;"/><path d="M3328.94,1348.45c-0,-16.576 -6.585,-32.473 -18.306,-44.194c-11.721,-11.721 -27.618,-18.306 -44.194,-18.306c-157.706,-0 -570.427,-0 -728.132,-0c-16.576,-0 -32.473,6.585 -44.194,18.306c-11.721,11.721 -18.306,27.618 -18.306,44.194c-0,37.319 -0,84.558 -0,121.877c-0,16.576 6.585,32.473 18.306,44.194c11.721,11.721 27.618,18.306 44.194,18.306c157.705,-0 570.426,-0 728.132,-0c16.576,-0 32.473,-6.585 44.194,-18.306c11.721,-11.721 18.306,-27.618 18.306,-44.194c-0,-37.319 -0,-84.558 -0,-121.877Z" style="stroke:#009696;stroke-width:12.5px;"/><path d="M1293.76,2137.52c0,-24.523 -9.741,-48.041 -27.081,-65.381c-17.34,-17.34 -40.859,-27.082 -65.381,-27.082c-89.027,0 -222.927,0 -311.954,0c-24.523,0 -48.041,9.742 -65.381,27.082c-17.34,17.34 -27.082,40.858 -27.082,65.381c0,0.001 0,0.002 0,0.003c0,24.522 9.742,48.04 27.082,65.38c17.34,17.34 40.858,27.082 65.381,27.082c89.027,0 222.927,0 311.954,0c24.522,0 48.041,-9.742 65.381,-27.082c17.34,-17.34 27.081,-40.858 27.081,-65.38l0,-0.003Z" style="fill:none;stroke:#ff6504;stroke-width:20.83px;"/><path d="M1850.02,2137.52c-0,-24.523 -9.742,-48.041 -27.082,-65.381c-17.34,-17.34 -40.858,-27.082 -65.381,-27.082l-311.954,0c-24.522,0 -48.04,9.742 -65.381,27.082c-17.34,17.34 -27.081,40.858 -27.081,65.381c-0,0.001 -0,0.002 -0,0.003c-0,24.522 9.741,48.04 27.081,65.38c17.341,17.34 40.859,27.082 65.381,27.082c89.027,0 222.927,0 311.954,0c24.523,0 48.041,-9.742 65.381,-27.082c17.34,-17.34 27.082,-40.858 27.082,-65.38l-0,-0.003Z" style="fill:none;stroke:#ff6504;stroke-width:20.83px;"/><path d="M2406.27,2137.52c0,-24.523 -9.741,-48.041 -27.081,-65.381c-17.341,-17.34 -40.859,-27.082 -65.381,-27.082l-311.954,0c-24.523,0 -48.041,9.742 -65.381,27.082c-17.34,17.34 -27.082,40.858 -27.082,65.381l0,0.003c0,24.522 9.742,48.04 27.082,65.38c17.34,17.34 40.858,27.082 65.381,27.082l311.954,0c24.522,0 48.04,-9.742 65.381,-27.082c17.34,-17.34 27.081,-40.858 27.081,-65.38l0,-0.003Z" style="fill:none;stroke:#ff6504;stroke-width:20.83px;"/><path d="M2962.52,2137.52c-0,-24.523 -9.742,-48.041 -27.082,-65.381c-17.34,-17.34 -40.858,-27.082 -65.381,-27.082l-311.954,0c-24.522,0 -48.041,9.742 -65.381,27.082c-17.34,17.34 -27.081,40.858 -27.081,65.381l-0,0.003c-0,24.522 9.741,48.04 27.081,65.38c17.34,17.34 40.859,27.082 65.381,27.082l311.954,0c24.523,0 48.041,-9.742 65.381,-27.082c17.34,-17.34 27.082,-40.858 27.082,-65.38l-0,-0.003Z" style="fill:none;stroke:#ff6504;stroke-width:20.83px;"/><path d="M2386.67,3740.65c-0,-16.576 -6.585,-32.473 -18.306,-44.194c-11.721,-11.721 -27.618,-18.306 -44.194,-18.306c-183.106,0 -716.903,0 -900.009,0c-16.576,0 -32.473,6.585 -44.194,18.306c-11.721,11.721 -18.306,27.618 -18.306,44.194c0,174.585 0,666.048 0,840.633c0,16.576 6.585,32.473 18.306,44.194c11.721,11.721 27.618,18.306 44.194,18.306c183.106,0 716.903,0 900.009,0c16.576,0 32.473,-6.585 44.194,-18.306c11.721,-11.721 18.306,-27.618 18.306,-44.194c-0,-174.585 -0,-666.048 -0,-840.633Z" style="fill:none;stroke:#009696;stroke-width:20.83px;"/><rect x="1614.79" y="3629.72" width="531.254" height="96.876"/><text x="1422.26px" y="3815.76px" style="font-family:'ArialMT', 'Arial', sans-serif;font-size:78.575px;fill:#fff;stroke:#fff;stroke-width:3.13px;stroke-linecap:butt;stroke-miterlimit:2;">M<tspan x="1490.77px 1513.62px 1568.47px 1627.87px 1650.72px 1710.11px 1764.96px 1813.71px 1863.95px 1918.81px 1978.2px " y="3815.76px 3815.76px 3815.76px 3815.76px 3815.76px 3815.76px 3815.76px 3815.76px 3815.76px 3815.76px 3815.76px ">ISC HEATERS</tspan></text><text x="602.053px" y="4128.11px" style="font-family:'ArialMT', 'Arial', sans-serif;font-size:87.254px;fill:#009696;stroke:#009696;stroke-width:3.13px;stroke-linecap:butt;stroke-miterlimit:2;">MAIN BA<tspan x="954.347px " y="4128.11px ">T</tspan></text><text x="365.628px" y="4296.91px" style="font-family:'ArialMT', 'Arial', sans-serif;font-size:87.254px;fill:#009696;stroke:#009696;stroke-width:3.13px;stroke-linecap:butt;stroke-miterlimit:2;">VOL<tspan x="533.744px 587.042px " y="4296.91px 4296.91px ">TS</tspan></text><text x="366.011px" y="4412.53px" style="font-family:'ArialMT', 'Arial', sans-serif;font-size:87.254px;fill:#009696;stroke:#009696;stroke-width:3.13px;stroke-linecap:butt;stroke-miterlimit:2;">AMPS</text><text x="2828.15px" y="4128.16px" style="font-family:'ArialMT', 'Arial', sans-serif;font-size:87.254px;fill:#009696;stroke:#009696;stroke-width:3.13px;stroke-linecap:butt;stroke-miterlimit:2;">APU BA<tspan x="3141.72px " y="4128.16px ">T</tspan></text><text x="2584.4px" y="4295.84px" style="font-family:'ArialMT', 'Arial', sans-serif;font-size:87.254px;fill:#009696;stroke:#009696;stroke-width:3.13px;stroke-linecap:butt;stroke-miterlimit:2;">VOL<tspan x="2752.51px 2805.81px " y="4295.84px 4295.84px ">TS</tspan></text><text x="2584.78px" y="4411.51px" style="font-family:'ArialMT', 'Arial', sans-serif;font-size:87.254px;fill:#009696;stroke:#009696;stroke-width:3.13px;stroke-linecap:butt;stroke-miterlimit:2;">AMPS</text><text x="2599.26px" y="3465.65px" style="font-family:'ArialMT', 'Arial', sans-serif;font-size:87.254px;fill:#009696;stroke:#009696;stroke-width:3.13px;stroke-linecap:butt;stroke-miterlimit:2;">R<tspan x="2668.38px 2721.6px 2748.19px 2801.41px 2828px 2902.44px 2966.27px 3035.38px 3061.97px 3115.2px 3141.79px 3210.9px " y="3465.65px 3465.65px 3465.65px 3465.65px 3465.65px 3465.65px 3465.65px 3465.65px 3465.65px 3465.65px 3465.65px 3465.65px ">1 – GEN – R2</tspan></text><text x="2782.43px" y="3568.78px" style="font-family:'ArialMT', 'Arial', sans-serif;font-size:87.254px;fill:#009696;stroke:#009696;stroke-width:3.13px;stroke-linecap:butt;stroke-miterlimit:2;">DRIVE</text><text x="875.99px" y="2168.87px" style="font-family:'ArialMT', 'Arial', sans-serif;font-size:87.254px;fill:#ff6504;stroke:#ff6504;stroke-width:3.13px;stroke-linecap:butt;stroke-miterlimit:2;">L1 MAIN</text><text x="1432.25px" y="2168.87px" style="font-family:'ArialMT', 'Arial', sans-serif;font-size:87.254px;fill:#ff6504;stroke:#ff6504;stroke-width:3.13px;stroke-linecap:butt;stroke-miterlimit:2;">L2 MAIN</text><text x="1988.5px" y="2168.87px" style="font-family:'ArialMT', 'Arial', sans-serif;font-size:87.254px;fill:#ff6504;stroke:#ff6504;stroke-width:3.13px;stroke-linecap:butt;stroke-miterlimit:2;">R1 MAIN</text><text x="2544.75px" y="2168.87px" style="font-family:'ArialMT', 'Arial', sans-serif;font-size:87.254px;fill:#ff6504;stroke:#ff6504;stroke-width:3.13px;stroke-linecap:butt;stroke-miterlimit:2;">R2 MAIN</text><text x="1627.41px" y="3709.51px" style="font-family:'ArialMT', 'Arial', sans-serif;font-size:78.523px;fill:#009696;stroke:#009696;stroke-width:3.13px;stroke-linecap:butt;stroke-miterlimit:2;">L<tspan x="1675.93px 1743.8px 1802px 1865.01px 1889.25px 1947.45px 2010.46px 2068.66px " y="3709.51px 3709.51px 3709.51px 3709.51px 3709.51px 3709.51px 3709.51px 3709.51px ">OAD SHED</tspan></text><text x="2578.14px" y="1390.64px" style="font-family:'ArialMT', 'Arial', sans-serif;font-size:87.254px;fill:#009696;stroke:#009696;stroke-width:3.13px;stroke-linecap:butt;stroke-miterlimit:2;">LARGE MOT<tspan x="3090.45px 3158.32px " y="1390.64px 1390.64px ">OR</tspan></text><text x="2637.06px" y="1487.51px" style="font-family:'ArialMT', 'Arial', sans-serif;font-size:87.254px;fill:#009696;stroke:#009696;stroke-width:3.13px;stroke-linecap:butt;stroke-miterlimit:2;">POWER SYS</text><text x="2611.3px" y="564.026px" style="font-family:'ArialMT', 'Arial', sans-serif;font-size:87.254px;fill:#009696;stroke:#009696;stroke-width:3.13px;stroke-linecap:butt;stroke-miterlimit:2;">AFT<tspan x="2774.52px 2798.76px " y="564.026px 564.026px "> E</tspan>XT<tspan x="2966.88px 2991.12px " y="564.026px 564.026px "> P</tspan>WR</text><text x="525.004px" y="563.983px" style="font-family:'ArialMT', 'Arial', sans-serif;font-size:87.194px;fill:#009696;stroke:#009696;stroke-width:3.13px;stroke-linecap:butt;stroke-miterlimit:2;">FWD EXT<tspan x="915.76px 939.985px " y="563.983px 563.983px "> P</tspan>WR</text><text x="662.505px" y="731.922px" style="font-family:'ArialMT', 'Arial', sans-serif;font-size:87.194px;fill:#009696;stroke:#009696;stroke-width:3.13px;stroke-linecap:butt;stroke-miterlimit:2;">L</text><text x="958.497px" y="731.922px" style="font-family:'ArialMT', 'Arial', sans-serif;font-size:87.194px;fill:#009696;stroke:#009696;stroke-width:3.13px;stroke-linecap:butt;stroke-miterlimit:2;">R</text><text x="1656.03px" y="1987.47px" style="font-family:'ArialMT', 'Arial', sans-serif;font-size:87.194px;fill:#009696;stroke:#009696;stroke-width:3.13px;stroke-linecap:butt;stroke-miterlimit:2;">AC BUSES</text><text x="2818.77px" y="2640.6px" style="font-family:'ArialMT', 'Arial', sans-serif;font-size:87.194px;fill:#009696;stroke:#009696;stroke-width:3.13px;stroke-linecap:butt;stroke-miterlimit:2;">GEN</text><text x="2797.53px" y="2731.23px" style="font-family:'ArialMT', 'Arial', sans-serif;font-size:87.194px;fill:#009696;stroke:#009696;stroke-width:3.13px;stroke-linecap:butt;stroke-miterlimit:2;">CTRL</text><text x="2589.86px" y="2731.23px" style="font-family:'ArialMT', 'Arial', sans-serif;font-size:87.194px;fill:#009696;stroke:#009696;stroke-width:3.13px;stroke-linecap:butt;stroke-miterlimit:2;">L1</text><text x="3137.38px" y="2732.29px" style="font-family:'ArialMT', 'Arial', sans-serif;font-size:87.194px;fill:#009696;stroke:#009696;stroke-width:3.13px;stroke-linecap:butt;stroke-miterlimit:2;">R1</text><rect x="910.946" y="2768.02" width="218.752" height="253.127" style="stroke:#fff;stroke-width:8.33px;"/><rect x="566.342" y="2768.02" width="218.752" height="253.127" style="stroke:#fff;stroke-width:8.33px;"/><rect x="540.632" y="3096.15" width="270.172" height="265.627" style="stroke:#fff;stroke-width:8.33px;"/><rect x="891.486" y="3096.15" width="270.172" height="265.627" style="stroke:#fff;stroke-width:8.33px;"/><text x="533.622px" y="3465.65px" style="font-family:'ArialMT', 'Arial', sans-serif;font-size:87.254px;fill:#009696;stroke:#009696;stroke-width:3.13px;stroke-linecap:butt;stroke-miterlimit:2;">R<tspan x="602.734px 655.958px 682.547px 735.771px 762.36px 836.799px 900.631px 969.742px 996.331px 1049.56px 1076.14px 1145.26px " y="3465.65px 3465.65px 3465.65px 3465.65px 3465.65px 3465.65px 3465.65px 3465.65px 3465.65px 3465.65px 3465.65px 3465.65px ">1 – GEN – R2</tspan></text><text x="716.792px" y="3568.78px" style="font-family:'ArialMT', 'Arial', sans-serif;font-size:87.254px;fill:#009696;stroke:#009696;stroke-width:3.13px;stroke-linecap:butt;stroke-miterlimit:2;">DRIVE</text><text x="753.131px" y="2640.6px" style="font-family:'ArialMT', 'Arial', sans-serif;font-size:87.194px;fill:#009696;stroke:#009696;stroke-width:3.13px;stroke-linecap:butt;stroke-miterlimit:2;">GEN</text><text x="731.886px" y="2731.23px" style="font-family:'ArialMT', 'Arial', sans-serif;font-size:87.194px;fill:#009696;stroke:#009696;stroke-width:3.13px;stroke-linecap:butt;stroke-miterlimit:2;">CTRL</text><text x="524.221px" y="2731.23px" style="font-family:'ArialMT', 'Arial', sans-serif;font-size:87.194px;fill:#009696;stroke:#009696;stroke-width:3.13px;stroke-linecap:butt;stroke-miterlimit:2;">L1</text><text x="1071.74px" y="2732.29px" style="font-family:'ArialMT', 'Arial', sans-serif;font-size:87.194px;fill:#009696;stroke:#009696;stroke-width:3.13px;stroke-linecap:butt;stroke-miterlimit:2;">R1</text><text x="1681.57px" y="249.959px" style="font-family:'ArialMT', 'Arial', sans-serif;font-size:87.194px;fill:#009696;stroke:#009696;stroke-width:3.13px;stroke-linecap:butt;stroke-miterlimit:2;">APU GEN</text><text x="1696px" y="378.128px" style="font-family:'ArialMT', 'Arial', sans-serif;font-size:87.194px;fill:#009696;stroke:#009696;stroke-width:3.13px;stroke-linecap:butt;stroke-miterlimit:2;">L</text><text x="1984.43px" y="378.085px" style="font-family:'ArialMT', 'Arial', sans-serif;font-size:87.135px;fill:#009696;stroke:#009696;stroke-width:3.13px;stroke-linecap:butt;stroke-miterlimit:2;">R</text><text x="782.316px" y="4296.87px" style="font-family:'ArialMT', 'Arial', sans-serif;font-size:87.135px;fill:#fff;stroke:#fff;stroke-width:3.13px;stroke-linecap:butt;stroke-miterlimit:2;">26</text><text x="782.316px" y="4412.49px" style="font-family:'ArialMT', 'Arial', sans-serif;font-size:87.135px;fill:#fff;stroke:#fff;stroke-width:3.13px;stroke-linecap:butt;stroke-miterlimit:2;">13  CHG</text><text x="3000.02px" y="4297.97px" style="font-family:'ArialMT', 'Arial', sans-serif;font-size:88.917px;fill:#fff;stroke:#fff;stroke-width:3.13px;stroke-linecap:butt;stroke-miterlimit:2;">28</text><text x="3000.02px" y="4413.01px" style="font-family:'ArialMT', 'Arial', sans-serif;font-size:88.917px;fill:#fff;stroke:#fff;stroke-width:3.13px;stroke-linecap:butt;stroke-miterlimit:2;">0</text></svg>