<?xml version="1.0" encoding="UTF-8" standalone="no"?><!DOCTYPE svg PUBLIC "-//W3C//DTD SVG 1.1//EN" "http://www.w3.org/Graphics/SVG/1.1/DTD/svg11.dtd"><svg width="100%" height="100%" viewBox="0 0 3749 4969" version="1.1" xmlns="http://www.w3.org/2000/svg" xmlns:xlink="http://www.w3.org/1999/xlink" xml:space="preserve" xmlns:serif="http://www.serif.com/" style="fill-rule:evenodd;clip-rule:evenodd;stroke-linecap:round;stroke-linejoin:round;stroke-miterlimit:1.5;"><rect x="-84.375" y="-87.627" width="3935.93" height="5140.84" style="stroke:#000;stroke-width:12.81px;"/><path d="M3233.52,1896.88c-0,-16.576 -6.585,-32.473 -18.306,-44.194c-11.721,-11.721 -27.618,-18.306 -44.194,-18.306c-364.902,0 -2216.35,0 -2581.25,0c-16.576,-0 -32.474,6.585 -44.195,18.306c-11.721,11.721 -18.305,27.618 -18.305,44.194c-0,116.352 -0,364.898 -0,481.25c-0,16.576 6.584,32.473 18.305,44.194c11.721,11.721 27.619,18.306 44.195,18.306c364.901,0 2216.35,0 2581.25,0c16.576,0 32.473,-6.585 44.194,-18.306c11.721,-11.721 18.306,-27.618 18.306,-44.194c-0,-116.352 -0,-364.898 -0,-481.25Z" style="stroke:#009696;stroke-width:12.5px;"/><rect x="578.125" y="764.043" width="218.75" height="253.125" style="stroke:#06ff04;stroke-width:20.83px;"/><rect x="2792.98" y="765.625" width="218.75" height="251.543" style="stroke:#06ff04;stroke-width:20.83px;"/><rect x="875" y="764.043" width="218.75" height="253.125" style="stroke:#06ff04;stroke-width:20.83px;"/><rect x="687.5" y="764.043" width="0" height="1021.88" style="stroke:#06ff04;stroke-width:20.83px;"/><path d="M687.5,1825l-60.937,-46.875l121.875,0l-60.938,46.875Z" style="fill:#06ff04;stroke:#06ff04;stroke-width:8.33px;stroke-miterlimit:1;"/><rect x="984.375" y="770.293" width="0" height="1021.88" style="stroke:#06ff04;stroke-width:20.83px;"/><path d="M984.375,1825l-60.938,-46.875l121.875,0l-60.937,46.875Z" style="fill:#06ff04;stroke:#06ff04;stroke-width:8.33px;stroke-miterlimit:1;"/><path d="M1721.88,1825l-60.937,-46.875l121.875,0l-60.938,46.875Z" style="fill:#06ff04;stroke:#06ff04;stroke-width:8.33px;stroke-miterlimit:1;"/><path d="M2018.75,1825l-60.937,-46.875l121.875,0l-60.938,46.875Z" style="fill:#06ff04;stroke:#06ff04;stroke-width:8.33px;stroke-miterlimit:1;"/><rect x="1709.38" y="405.459" width="25" height="1409.93" style="fill:#fff;"/><rect x="1709.38" y="405.459" width="25" height="1409.93" style="fill:#06ff04;"/><rect x="2006.25" y="405.459" width="25" height="1409.93" style="fill:#fff;"/><rect x="2006.25" y="405.459" width="25" height="1409.93" style="fill:#06ff04;"/><rect x="2976.56" y="2768" width="218.75" height="253.125" style="stroke:#02ff00;stroke-width:20.83px;"/><rect x="2631.96" y="2768" width="218.75" height="253.125" style="stroke:#02ff00;stroke-width:20.83px;"/><rect x="2606.25" y="3096.12" width="270.17" height="265.625" style="stroke:#02ff00;stroke-width:20.83px;"/><rect x="2957.1" y="3096.12" width="270.17" height="265.625" style="stroke:#02ff00;stroke-width:20.83px;"/><rect x="2730.4" y="2457.22" width="21.875" height="563.906" style="fill:#fff;"/><rect x="2730.4" y="2457.22" width="21.875" height="563.906" style="fill:#02ff00;"/><rect x="3074.15" y="2457.22" width="21.875" height="563.906" style="fill:#fff;"/><rect x="3074.15" y="2457.22" width="21.875" height="563.906" style="fill:#02ff00;"/><rect x="1609.38" y="402.334" width="225" height="260.918" style="fill:none;stroke:#06ff04;stroke-width:20.83px;"/><rect x="1906.25" y="405.459" width="225" height="260.918" style="fill:none;stroke:#06ff04;stroke-width:20.83px;"/><rect x="2897.67" y="765.625" width="9.375" height="1059.38" style="fill:#06ff04;stroke:#06ff04;stroke-width:12.5px;"/><path d="M3328.92,1348.44c0,-16.576 -6.585,-32.473 -18.306,-44.194c-11.721,-11.721 -27.618,-18.306 -44.194,-18.305c-157.704,-0 -570.42,-0 -728.125,-0c-16.576,-0.001 -32.473,6.584 -44.194,18.305c-11.721,11.721 -18.306,27.618 -18.306,44.194c0,37.319 0,84.557 0,121.876c0,16.576 6.585,32.473 18.306,44.194c11.721,11.721 27.618,18.306 44.194,18.306c157.705,-0 570.421,-0 728.125,-0c16.576,-0 32.473,-6.585 44.194,-18.306c11.721,-11.721 18.306,-27.618 18.306,-44.194c0,-37.319 0,-84.557 0,-121.876Z" style="stroke:#009696;stroke-width:12.5px;"/><path d="M2902.35,1532.81l56.635,46.875l-113.271,-0l56.636,-46.875Z" style="fill:#06ff04;stroke:#06ff04;stroke-width:8.33px;"/><path d="M2741.34,2450.75l56.636,46.875l-113.271,-0l56.635,-46.875Z" style="fill:#06ff04;stroke:#06ff04;stroke-width:8.33px;"/><path d="M3084.38,2450.75l56.636,46.875l-113.272,-0l56.636,-46.875Z" style="fill:#06ff04;stroke:#06ff04;stroke-width:8.33px;"/><path d="M2902.35,1285.94l-56.636,-46.875l113.271,-0l-56.635,46.875Z" style="fill:#06ff04;stroke:#06ff04;stroke-width:8.33px;"/><rect x="3341.42" y="1406.25" width="210.166" height="9.375" style="fill:#06ff04;stroke:#06ff04;stroke-width:12.5px;"/><rect x="3551.58" y="1406.25" width="9.375" height="203.125" style="fill:#06ff04;stroke:#06ff04;stroke-width:12.5px;"/><path d="M3556.27,1615.63l-57.813,-40.625l115.625,0l-57.812,40.625Z" style="fill:#06ff04;stroke:#06ff04;stroke-width:8.33px;"/><path d="M1293.75,2137.5c0,-24.522 -9.742,-48.041 -27.082,-65.381c-17.34,-17.34 -40.858,-27.081 -65.381,-27.081c-89.025,-0 -222.924,-0 -311.949,-0c-24.523,-0 -48.041,9.741 -65.381,27.081c-17.34,17.34 -27.082,40.859 -27.082,65.381c0,0.001 0,0.001 0,0.002c-0,24.522 9.742,48.041 27.082,65.381c17.34,17.34 40.858,27.081 65.381,27.081c89.025,0 222.924,0 311.949,0c24.523,0 48.041,-9.741 65.381,-27.081c17.34,-17.34 27.082,-40.859 27.082,-65.381c0,-0.001 0,-0.001 0,-0.002Z" style="fill:none;stroke:#06ff04;stroke-width:20.83px;"/><path d="M1850,2137.5c0,-24.522 -9.742,-48.041 -27.082,-65.381c-17.34,-17.34 -40.858,-27.081 -65.381,-27.081c-89.025,-0 -222.924,-0 -311.949,-0c-24.523,-0 -48.041,9.741 -65.381,27.081c-17.34,17.34 -27.082,40.859 -27.082,65.381c0,0.001 0,0.001 0,0.002c-0,24.522 9.742,48.041 27.082,65.381c17.34,17.34 40.858,27.081 65.381,27.081c89.025,0 222.924,0 311.949,0c24.523,0 48.041,-9.741 65.381,-27.081c17.34,-17.34 27.082,-40.859 27.082,-65.381c0,-0.001 0,-0.001 0,-0.002Z" style="fill:none;stroke:#06ff04;stroke-width:20.83px;"/><path d="M2406.25,2137.5c0,-24.522 -9.742,-48.041 -27.082,-65.381c-17.34,-17.34 -40.858,-27.081 -65.381,-27.081c-89.025,-0 -222.924,-0 -311.949,-0c-24.523,-0 -48.041,9.741 -65.381,27.081c-17.34,17.34 -27.082,40.859 -27.082,65.381c0,0.001 0,0.001 0,0.002c-0,24.522 9.742,48.041 27.082,65.381c17.34,17.34 40.858,27.081 65.381,27.081c89.025,0 222.924,0 311.949,0c24.523,0 48.041,-9.741 65.381,-27.081c17.34,-17.34 27.082,-40.859 27.082,-65.381c0,-0.001 0,-0.001 0,-0.002Z" style="fill:none;stroke:#06ff04;stroke-width:20.83px;"/><path d="M2962.5,2137.5c0,-24.522 -9.742,-48.041 -27.082,-65.381c-17.34,-17.34 -40.858,-27.081 -65.381,-27.081c-89.025,-0 -222.924,-0 -311.949,-0c-24.523,-0 -48.041,9.741 -65.381,27.081c-17.34,17.34 -27.082,40.859 -27.082,65.381c0,0.001 0,0.001 0,0.002c-0,24.522 9.742,48.041 27.082,65.381c17.34,17.34 40.858,27.081 65.381,27.081c89.025,0 222.924,0 311.949,0c24.523,0 48.041,-9.741 65.381,-27.081c17.34,-17.34 27.082,-40.859 27.082,-65.381c0,-0.001 0,-0.001 0,-0.002Z" style="fill:none;stroke:#06ff04;stroke-width:20.83px;"/><path d="M2386.65,3740.63c-0,-16.576 -6.585,-32.473 -18.306,-44.194c-11.721,-11.721 -27.618,-18.306 -44.194,-18.306c-183.105,0 -716.896,0 -900,0c-16.576,-0 -32.474,6.585 -44.195,18.306c-11.721,11.721 -18.305,27.618 -18.305,44.194c-0,174.584 -0,666.041 -0,840.625c-0,16.576 6.584,32.473 18.305,44.194c11.721,11.721 27.619,18.306 44.195,18.306c183.104,0 716.895,-0 900,0c16.576,0 32.473,-6.585 44.194,-18.306c11.721,-11.721 18.306,-27.618 18.306,-44.194c-0,-174.584 -0,-666.041 -0,-840.625Z" style="fill:none;stroke:#009696;stroke-width:20.83px;"/><rect x="1614.77" y="3629.69" width="531.25" height="96.875"/><text x="1422.25px" y="3815.73px" style="font-family:'ArialMT', 'Arial', sans-serif;font-size:78.575px;fill:#fff;stroke:#fff;stroke-width:3.13px;stroke-linecap:butt;stroke-miterlimit:2;">M<tspan x="1490.76px 1513.61px 1568.46px 1627.85px 1650.7px 1710.09px 1764.95px 1813.7px 1863.94px 1918.79px 1978.18px " y="3815.73px 3815.73px 3815.73px 3815.73px 3815.73px 3815.73px 3815.73px 3815.73px 3815.73px 3815.73px 3815.73px ">ISC HEATERS</tspan></text><text x="602.048px" y="4128.08px" style="font-family:'ArialMT', 'Arial', sans-serif;font-size:87.253px;fill:#009696;stroke:#009696;stroke-width:3.13px;stroke-linecap:butt;stroke-miterlimit:2;">MAIN BA<tspan x="954.34px " y="4128.08px ">T</tspan></text><text x="365.625px" y="4296.88px" style="font-family:'ArialMT', 'Arial', sans-serif;font-size:87.253px;fill:#009696;stroke:#009696;stroke-width:3.13px;stroke-linecap:butt;stroke-miterlimit:2;">VOL<tspan x="533.74px 587.038px " y="4296.88px 4296.88px ">TS</tspan></text><text x="366.008px" y="4412.5px" style="font-family:'ArialMT', 'Arial', sans-serif;font-size:87.253px;fill:#009696;stroke:#009696;stroke-width:3.13px;stroke-linecap:butt;stroke-miterlimit:2;">AMPS</text><text x="2828.13px" y="4128.13px" style="font-family:'ArialMT', 'Arial', sans-serif;font-size:87.253px;fill:#009696;stroke:#009696;stroke-width:3.13px;stroke-linecap:butt;stroke-miterlimit:2;">APU BA<tspan x="3141.69px " y="4128.13px ">T</tspan></text><text x="2584.38px" y="4295.81px" style="font-family:'ArialMT', 'Arial', sans-serif;font-size:87.253px;fill:#009696;stroke:#009696;stroke-width:3.13px;stroke-linecap:butt;stroke-miterlimit:2;">VOL<tspan x="2752.49px 2805.79px " y="4295.81px 4295.81px ">TS</tspan></text><text x="2584.76px" y="4411.48px" style="font-family:'ArialMT', 'Arial', sans-serif;font-size:87.253px;fill:#009696;stroke:#009696;stroke-width:3.13px;stroke-linecap:butt;stroke-miterlimit:2;">AMPS</text><text x="2599.24px" y="3465.63px" style="font-family:'ArialMT', 'Arial', sans-serif;font-size:87.253px;fill:#009696;stroke:#009696;stroke-width:3.13px;stroke-linecap:butt;stroke-miterlimit:2;">R<tspan x="2668.35px 2721.58px 2748.17px 2801.39px 2827.98px 2902.42px 2966.25px 3035.36px 3061.95px 3115.17px 3141.76px 3210.87px " y="3465.63px 3465.63px 3465.63px 3465.63px 3465.63px 3465.63px 3465.63px 3465.63px 3465.63px 3465.63px 3465.63px 3465.63px ">1 – GEN – R2</tspan></text><text x="2782.41px" y="3568.75px" style="font-family:'ArialMT', 'Arial', sans-serif;font-size:87.253px;fill:#009696;stroke:#009696;stroke-width:3.13px;stroke-linecap:butt;stroke-miterlimit:2;">DRIVE</text><text x="875.983px" y="2168.86px" style="font-family:'ArialMT', 'Arial', sans-serif;font-size:87.253px;fill:#06ff04;stroke:#06ff04;stroke-width:3.13px;stroke-linecap:butt;stroke-miterlimit:2;">L1 MAIN</text><text x="1432.23px" y="2168.86px" style="font-family:'ArialMT', 'Arial', sans-serif;font-size:87.253px;fill:#06ff04;stroke:#06ff04;stroke-width:3.13px;stroke-linecap:butt;stroke-miterlimit:2;">L2 MAIN</text><text x="1988.48px" y="2168.86px" style="font-family:'ArialMT', 'Arial', sans-serif;font-size:87.253px;fill:#06ff04;stroke:#06ff04;stroke-width:3.13px;stroke-linecap:butt;stroke-miterlimit:2;">R1 MAIN</text><text x="2544.73px" y="2168.86px" style="font-family:'ArialMT', 'Arial', sans-serif;font-size:87.253px;fill:#06ff04;stroke:#06ff04;stroke-width:3.13px;stroke-linecap:butt;stroke-miterlimit:2;">R2 MAIN</text><text x="1627.39px" y="3709.48px" style="font-family:'ArialMT', 'Arial', sans-serif;font-size:78.523px;fill:#009696;stroke:#009696;stroke-width:3.12px;stroke-linecap:butt;stroke-miterlimit:2;">L<tspan x="1675.92px 1743.79px 1801.99px 1865px 1889.24px 1947.44px 2010.45px 2068.64px " y="3709.48px 3709.48px 3709.48px 3709.48px 3709.48px 3709.48px 3709.48px 3709.48px ">OAD SHED</tspan></text><text x="2578.12px" y="1390.63px" style="font-family:'ArialMT', 'Arial', sans-serif;font-size:87.253px;fill:#009696;stroke:#009696;stroke-width:3.13px;stroke-linecap:butt;stroke-miterlimit:2;">LARGE MOT<tspan x="3090.43px 3158.3px " y="1390.63px 1390.63px ">OR</tspan></text><text x="2637.04px" y="1487.5px" style="font-family:'ArialMT', 'Arial', sans-serif;font-size:87.253px;fill:#009696;stroke:#009696;stroke-width:3.13px;stroke-linecap:butt;stroke-miterlimit:2;">POWER SYS</text><text x="2611.28px" y="564.021px" style="font-family:'ArialMT', 'Arial', sans-serif;font-size:87.253px;fill:#009696;stroke:#009696;stroke-width:3.13px;stroke-linecap:butt;stroke-miterlimit:2;">AFT<tspan x="2774.5px 2798.74px " y="564.021px 564.021px "> E</tspan>XT<tspan x="2966.86px 2991.1px " y="564.021px 564.021px "> P</tspan>WR</text><text x="525px" y="563.979px" style="font-family:'ArialMT', 'Arial', sans-serif;font-size:87.193px;fill:#009696;stroke:#009696;stroke-width:3.13px;stroke-linecap:butt;stroke-miterlimit:2;">FWD EXT<tspan x="915.753px 939.978px " y="563.979px 563.979px "> P</tspan>WR</text><text x="662.5px" y="731.916px" style="font-family:'ArialMT', 'Arial', sans-serif;font-size:87.193px;fill:#009696;stroke:#009696;stroke-width:3.13px;stroke-linecap:butt;stroke-miterlimit:2;">L</text><text x="958.489px" y="731.916px" style="font-family:'ArialMT', 'Arial', sans-serif;font-size:87.193px;fill:#009696;stroke:#009696;stroke-width:3.13px;stroke-linecap:butt;stroke-miterlimit:2;">R</text><text x="1656.02px" y="1987.46px" style="font-family:'ArialMT', 'Arial', sans-serif;font-size:87.193px;fill:#009696;stroke:#009696;stroke-width:3.13px;stroke-linecap:butt;stroke-miterlimit:2;">AC BUSES</text><text x="2818.75px" y="2640.58px" style="font-family:'ArialMT', 'Arial', sans-serif;font-size:87.193px;fill:#009696;stroke:#009696;stroke-width:3.13px;stroke-linecap:butt;stroke-miterlimit:2;">GEN</text><text x="2797.51px" y="2731.21px" style="font-family:'ArialMT', 'Arial', sans-serif;font-size:87.193px;fill:#009696;stroke:#009696;stroke-width:3.13px;stroke-linecap:butt;stroke-miterlimit:2;">CTRL</text><text x="2589.84px" y="2731.21px" style="font-family:'ArialMT', 'Arial', sans-serif;font-size:87.193px;fill:#009696;stroke:#009696;stroke-width:3.13px;stroke-linecap:butt;stroke-miterlimit:2;">L1</text><text x="3137.36px" y="2732.27px" style="font-family:'ArialMT', 'Arial', sans-serif;font-size:87.193px;fill:#009696;stroke:#009696;stroke-width:3.13px;stroke-linecap:butt;stroke-miterlimit:2;">R1</text><rect x="910.939" y="2768" width="218.75" height="253.125" style="stroke:#02ff00;stroke-width:20.83px;"/><rect x="566.337" y="2768" width="218.75" height="253.125" style="stroke:#02ff00;stroke-width:20.83px;"/><rect x="540.627" y="3096.12" width="270.17" height="265.625" style="stroke:#02ff00;stroke-width:20.83px;"/><rect x="891.479" y="3096.12" width="270.17" height="265.625" style="stroke:#02ff00;stroke-width:20.83px;"/><rect x="664.775" y="2457.22" width="21.875" height="563.906" style="fill:#fff;"/><rect x="664.775" y="2457.22" width="21.875" height="563.906" style="fill:#02ff00;"/><rect x="1008.52" y="2457.22" width="21.875" height="563.906" style="fill:#fff;"/><rect x="1008.52" y="2457.22" width="21.875" height="563.906" style="fill:#02ff00;"/><path d="M675.712,2450.75l56.636,46.875l-113.271,-0l56.635,-46.875Z" style="fill:#06ff04;stroke:#06ff04;stroke-width:8.33px;"/><path d="M1018.75,2450.75l56.636,46.875l-113.272,-0l56.636,-46.875Z" style="fill:#06ff04;stroke:#06ff04;stroke-width:8.33px;"/><text x="533.618px" y="3465.63px" style="font-family:'ArialMT', 'Arial', sans-serif;font-size:87.253px;fill:#009696;stroke:#009696;stroke-width:3.13px;stroke-linecap:butt;stroke-miterlimit:2;">R<tspan x="602.729px 655.953px 682.542px 735.765px 762.354px 836.792px 900.623px 969.735px 996.323px 1049.55px 1076.13px 1145.25px " y="3465.63px 3465.63px 3465.63px 3465.63px 3465.63px 3465.63px 3465.63px 3465.63px 3465.63px 3465.63px 3465.63px 3465.63px ">1 – GEN – R2</tspan></text><text x="716.786px" y="3568.75px" style="font-family:'ArialMT', 'Arial', sans-serif;font-size:87.253px;fill:#009696;stroke:#009696;stroke-width:3.13px;stroke-linecap:butt;stroke-miterlimit:2;">DRIVE</text><text x="753.125px" y="2640.58px" style="font-family:'ArialMT', 'Arial', sans-serif;font-size:87.193px;fill:#009696;stroke:#009696;stroke-width:3.13px;stroke-linecap:butt;stroke-miterlimit:2;">GEN</text><text x="731.88px" y="2731.21px" style="font-family:'ArialMT', 'Arial', sans-serif;font-size:87.193px;fill:#009696;stroke:#009696;stroke-width:3.13px;stroke-linecap:butt;stroke-miterlimit:2;">CTRL</text><text x="524.217px" y="2731.21px" style="font-family:'ArialMT', 'Arial', sans-serif;font-size:87.193px;fill:#009696;stroke:#009696;stroke-width:3.13px;stroke-linecap:butt;stroke-miterlimit:2;">L1</text><text x="1071.73px" y="2732.27px" style="font-family:'ArialMT', 'Arial', sans-serif;font-size:87.193px;fill:#009696;stroke:#009696;stroke-width:3.13px;stroke-linecap:butt;stroke-miterlimit:2;">R1</text><text x="1681.56px" y="249.957px" style="font-family:'ArialMT', 'Arial', sans-serif;font-size:87.193px;fill:#009696;stroke:#009696;stroke-width:3.13px;stroke-linecap:butt;stroke-miterlimit:2;">APU GEN</text><text x="1695.99px" y="378.125px" style="font-family:'ArialMT', 'Arial', sans-serif;font-size:87.193px;fill:#009696;stroke:#009696;stroke-width:3.13px;stroke-linecap:butt;stroke-miterlimit:2;">L</text><text x="1984.41px" y="378.082px" style="font-family:'ArialMT', 'Arial', sans-serif;font-size:87.134px;fill:#009696;stroke:#009696;stroke-width:3.13px;stroke-linecap:butt;stroke-miterlimit:2;">R</text><text x="782.309px" y="4296.83px" style="font-family:'ArialMT', 'Arial', sans-serif;font-size:87.134px;fill:#fff;stroke:#fff;stroke-width:3.13px;stroke-linecap:butt;stroke-miterlimit:2;">26</text><text x="782.309px" y="4412.46px" style="font-family:'ArialMT', 'Arial', sans-serif;font-size:87.134px;fill:#fff;stroke:#fff;stroke-width:3.13px;stroke-linecap:butt;stroke-miterlimit:2;">13  CHG</text><text x="3000px" y="4297.94px" style="font-family:'ArialMT', 'Arial', sans-serif;font-size:88.916px;fill:#fff;stroke:#fff;stroke-width:3.13px;stroke-linecap:butt;stroke-miterlimit:2;">28</text><text x="3000px" y="4412.97px" style="font-family:'ArialMT', 'Arial', sans-serif;font-size:88.916px;fill:#fff;stroke:#fff;stroke-width:3.13px;stroke-linecap:butt;stroke-miterlimit:2;">0</text><text x="3366.42px" y="1703.08px" style="font-family:'ArialMT', 'Arial', sans-serif;font-size:87.193px;fill:#02ff00;stroke:#06ff04;stroke-width:3.33px;stroke-linecap:butt;stroke-miterlimit:2;">R ST<tspan x="3558.56px 3616.71px 3678.11px " y="1703.08px 1703.08px 1703.08px ">ART</tspan></text></svg>