<?xml version="1.0" encoding="UTF-8" standalone="no"?><!DOCTYPE svg PUBLIC "-//W3C//DTD SVG 1.1//EN" "http://www.w3.org/Graphics/SVG/1.1/DTD/svg11.dtd"><svg width="100%" height="100%" viewBox="0 0 1200 1590" version="1.1" xmlns="http://www.w3.org/2000/svg" xmlns:xlink="http://www.w3.org/1999/xlink" xml:space="preserve" xmlns:serif="http://www.serif.com/" style="fill-rule:evenodd;clip-rule:evenodd;stroke-linecap:round;stroke-linejoin:round;stroke-miterlimit:1.5;"><rect x="-0" y="-0" width="1200" height="1590" style="stroke:#000;stroke-width:3.93px;"/><rect x="220.1" y="325.496" width="0" height="259.431" style="stroke:#fff;stroke-width:2.67px;"/><rect x="315.143" y="325.496" width="0" height="259.431" style="stroke:#fff;stroke-width:2.67px;"/><rect x="549.75" y="213.242" width="3.001" height="372.686" style="fill:#fff;"/><rect x="549.75" y="213.242" width="3.001" height="372.686" style="fill:#fff;"/><rect x="646.293" y="213.242" width="3.001" height="372.686" style="fill:#fff;"/><rect x="646.293" y="213.242" width="3.001" height="372.686" style="fill:#fff;"/><rect x="894.159" y="245.002" width="70.032" height="80.494" style="stroke:#fff;stroke-width:2.67px;"/><rect x="280.127" y="244.496" width="70.032" height="81.001" style="stroke:#fff;stroke-width:2.67px;"/><rect x="185.084" y="244.496" width="70.032" height="81.001" style="stroke:#fff;stroke-width:2.67px;"/><path d="M1035.2,607.005c-0,-11.046 -8.955,-20 -20,-20c-116.803,-0 -709.591,-0 -826.394,-0c-11.046,-0 -20,8.954 -20,20c0,37.233 0,116.768 0,154.001c0,11.046 8.954,20 20,20c116.803,0 709.591,0 826.394,0c11.045,0 20,-8.954 20,-20c-0,-37.233 -0,-116.768 -0,-154.001Z" style="fill:none;stroke:#009696;stroke-width:4px;"/><rect x="952.933" y="885.767" width="70.032" height="81.001" style="stroke:#fff;stroke-width:2.67px;"/><rect x="842.611" y="885.767" width="70.032" height="81.001" style="stroke:#fff;stroke-width:2.67px;"/><rect x="834.38" y="990.767" width="86.494" height="85.001" style="stroke:#fff;stroke-width:2.67px;"/><rect x="946.703" y="990.767" width="86.494" height="85.001" style="stroke:#fff;stroke-width:2.67px;"/><rect x="515.234" y="128.748" width="72.033" height="83.494" style="fill:none;stroke:#fff;stroke-width:2.67px;"/><rect x="610.277" y="129.748" width="72.033" height="83.494" style="fill:none;stroke:#fff;stroke-width:2.67px;"/><rect x="927.674" y="325.496" width="3.001" height="83.507" style="fill:#fff;"/><rect x="927.674" y="492.498" width="3.001" height="92.507" style="fill:#fff;"/><path d="M1065.74,431.503c0,-5.304 -2.107,-10.391 -5.858,-14.142c-3.75,-3.751 -8.838,-5.858 -14.142,-5.858c-50.484,0 -182.639,0 -233.124,0c-5.304,0 -10.391,2.107 -14.142,5.858c-3.751,3.751 -5.858,8.838 -5.858,14.142c0,11.942 0,27.059 0,39.001c0,5.304 2.107,10.391 5.858,14.142c3.751,3.751 8.838,5.858 14.142,5.858c50.485,-0 182.64,-0 233.124,-0c5.304,-0 10.392,-2.107 14.142,-5.858c3.751,-3.751 5.858,-8.838 5.858,-14.142c0,-11.942 0,-27.059 0,-39.001Z" style="stroke:#009696;stroke-width:4px;"/><path d="M414.188,684.005c0,-7.847 -3.117,-15.373 -8.666,-20.922c-5.549,-5.549 -13.075,-8.666 -20.922,-8.666l-99.896,-0c-7.847,-0 -15.373,3.117 -20.922,8.666c-5.549,5.549 -8.666,13.075 -8.666,20.922l-0,0.001c-0,7.847 3.117,15.373 8.666,20.922c5.549,5.549 13.075,8.666 20.922,8.666l99.896,-0c7.847,-0 15.373,-3.117 20.922,-8.666c5.549,-5.549 8.666,-13.075 8.666,-20.922l0,-0.001Z" style="fill:none;stroke:#ff6504;stroke-width:6.67px;"/><path d="M592.269,684.005c-0,-7.847 -3.117,-15.373 -8.666,-20.922c-5.549,-5.549 -13.075,-8.666 -20.922,-8.666l-99.896,-0c-7.848,-0 -15.373,3.117 -20.922,8.666c-5.549,5.549 -8.666,13.075 -8.666,20.922l-0,0.001c-0,7.847 3.117,15.373 8.666,20.922c5.549,5.549 13.074,8.666 20.922,8.666l99.896,-0c7.847,-0 15.373,-3.117 20.922,-8.666c5.549,-5.549 8.666,-13.075 8.666,-20.922l-0,-0.001Z" style="fill:none;stroke:#ff6504;stroke-width:6.67px;"/><path d="M770.35,684.005c-0,-7.847 -3.117,-15.373 -8.666,-20.922c-5.549,-5.549 -13.075,-8.666 -20.922,-8.666l-99.896,-0c-7.848,-0 -15.373,3.117 -20.922,8.666c-5.549,5.549 -8.666,13.075 -8.666,20.922l-0,0.001c-0,7.847 3.117,15.373 8.666,20.922c5.549,5.549 13.074,8.666 20.922,8.666l99.896,-0c7.847,-0 15.373,-3.117 20.922,-8.666c5.549,-5.549 8.666,-13.075 8.666,-20.922l-0,-0.001Z" style="fill:none;stroke:#ff6504;stroke-width:6.67px;"/><path d="M948.431,684.005c-0,-7.847 -3.118,-15.373 -8.666,-20.922c-5.549,-5.549 -13.075,-8.666 -20.922,-8.666l-99.897,-0c-7.847,-0 -15.373,3.117 -20.921,8.666c-5.549,5.549 -8.667,13.075 -8.667,20.922l0,0.001c0,7.847 3.118,15.373 8.667,20.922c5.548,5.549 13.074,8.666 20.921,8.666l99.897,-0c7.847,-0 15.373,-3.117 20.922,-8.666c5.548,-5.549 8.666,-13.075 8.666,-20.922l-0,-0.001Z" style="fill:none;stroke:#ff6504;stroke-width:6.67px;"/><path d="M764.075,1197.01c-0,-5.304 -2.108,-10.391 -5.858,-14.142c-3.751,-3.75 -8.838,-5.858 -14.142,-5.858c-58.615,0 -229.535,0 -288.15,0c-5.304,0 -10.391,2.108 -14.142,5.858c-3.75,3.751 -5.858,8.838 -5.858,14.142c0,55.868 0,213.136 0,269.003c0,5.304 2.108,10.391 5.858,14.142c3.751,3.751 8.838,5.858 14.142,5.858c58.615,-0 229.535,-0 288.15,-0c5.304,-0 10.391,-2.107 14.142,-5.858c3.75,-3.751 5.858,-8.838 5.858,-14.142c-0,-55.867 -0,-213.135 -0,-269.003Z" style="fill:none;stroke:#009696;stroke-width:6.67px;"/><rect x="516.962" y="1161.51" width="170.077" height="31"/><text x="455.326px" y="1221.04px" style="font-family:'ArialMT', 'Arial', sans-serif;font-size:25.144px;fill:#fff;stroke:#fff;stroke-width:1px;stroke-linecap:butt;stroke-miterlimit:2;">M<tspan x="477.258px 484.574px 502.135px 521.149px 528.464px 547.479px 565.04px 580.648px 596.731px 614.292px 633.306px " y="1221.04px 1221.04px 1221.04px 1221.04px 1221.04px 1221.04px 1221.04px 1221.04px 1221.04px 1221.04px 1221.04px ">ISC HEATERS</tspan></text><text x="192.743px" y="1321px" style="font-family:'ArialMT', 'Arial', sans-serif;font-size:27.921px;fill:#009696;stroke:#009696;stroke-width:1px;stroke-linecap:butt;stroke-miterlimit:2;">MAIN BA<tspan x="305.527px " y="1321px ">T</tspan></text><text x="117.053px" y="1375.01px" style="font-family:'ArialMT', 'Arial', sans-serif;font-size:27.921px;fill:#009696;stroke:#009696;stroke-width:1px;stroke-linecap:butt;stroke-miterlimit:2;">VOL<tspan x="170.874px 187.937px " y="1375.01px 1375.01px ">TS</tspan></text><text x="117.176px" y="1412.01px" style="font-family:'ArialMT', 'Arial', sans-serif;font-size:27.921px;fill:#009696;stroke:#009696;stroke-width:1px;stroke-linecap:butt;stroke-miterlimit:2;">AMPS</text><text x="905.411px" y="1321.01px" style="font-family:'ArialMT', 'Arial', sans-serif;font-size:27.921px;fill:#009696;stroke:#009696;stroke-width:1px;stroke-linecap:butt;stroke-miterlimit:2;">APU BA<tspan x="1005.8px " y="1321.01px ">T</tspan></text><text x="827.376px" y="1374.67px" style="font-family:'ArialMT', 'Arial', sans-serif;font-size:27.921px;fill:#009696;stroke:#009696;stroke-width:1px;stroke-linecap:butt;stroke-miterlimit:2;">VOL<tspan x="881.197px 898.26px " y="1374.67px 1374.67px ">TS</tspan></text><text x="827.498px" y="1411.68px" style="font-family:'ArialMT', 'Arial', sans-serif;font-size:27.921px;fill:#009696;stroke:#009696;stroke-width:1px;stroke-linecap:butt;stroke-miterlimit:2;">AMPS</text><text x="832.136px" y="1109.01px" style="font-family:'ArialMT', 'Arial', sans-serif;font-size:27.921px;fill:#009696;stroke:#009696;stroke-width:1px;stroke-linecap:butt;stroke-miterlimit:2;">R<tspan x="854.261px 871.301px 879.813px 896.852px 905.364px 929.195px 949.631px 971.756px 980.269px 997.308px 1005.82px 1027.95px " y="1109.01px 1109.01px 1109.01px 1109.01px 1109.01px 1109.01px 1109.01px 1109.01px 1109.01px 1109.01px 1109.01px 1109.01px ">1 – GEN – R2</tspan></text><text x="890.776px" y="1142.01px" style="font-family:'ArialMT', 'Arial', sans-serif;font-size:27.921px;fill:#009696;stroke:#009696;stroke-width:1px;stroke-linecap:butt;stroke-miterlimit:2;">DRIVE</text><text x="280.442px" y="694.04px" style="font-family:'ArialMT', 'Arial', sans-serif;font-size:27.921px;fill:#ff6504;stroke:#ff6504;stroke-width:1px;stroke-linecap:butt;stroke-miterlimit:2;">L1 MAIN</text><text x="458.523px" y="694.04px" style="font-family:'ArialMT', 'Arial', sans-serif;font-size:27.921px;fill:#ff6504;stroke:#ff6504;stroke-width:1px;stroke-linecap:butt;stroke-miterlimit:2;">L2 MAIN</text><text x="636.604px" y="694.04px" style="font-family:'ArialMT', 'Arial', sans-serif;font-size:27.921px;fill:#ff6504;stroke:#ff6504;stroke-width:1px;stroke-linecap:butt;stroke-miterlimit:2;">R1 MAIN</text><text x="814.685px" y="694.04px" style="font-family:'ArialMT', 'Arial', sans-serif;font-size:27.921px;fill:#ff6504;stroke:#ff6504;stroke-width:1px;stroke-linecap:butt;stroke-miterlimit:2;">R2 MAIN</text><text x="521.003px" y="1187.04px" style="font-family:'ArialMT', 'Arial', sans-serif;font-size:25.127px;fill:#009696;stroke:#009696;stroke-width:1px;stroke-linecap:butt;stroke-miterlimit:2;">L<tspan x="536.538px 558.266px 576.897px 597.07px 604.831px 623.463px 643.635px 662.267px " y="1187.04px 1187.04px 1187.04px 1187.04px 1187.04px 1187.04px 1187.04px 1187.04px ">OAD SHED</tspan></text><text x="825.372px" y="445.004px" style="font-family:'ArialMT', 'Arial', sans-serif;font-size:27.921px;fill:#009696;stroke:#009696;stroke-width:1px;stroke-linecap:butt;stroke-miterlimit:2;">LARGE MOT<tspan x="989.387px 1011.11px " y="445.004px 445.004px ">OR</tspan></text><text x="844.235px" y="476.004px" style="font-family:'ArialMT', 'Arial', sans-serif;font-size:27.921px;fill:#009696;stroke:#009696;stroke-width:1px;stroke-linecap:butt;stroke-miterlimit:2;">POWER SYS</text><text x="835.99px" y="180.488px" style="font-family:'ArialMT', 'Arial', sans-serif;font-size:27.921px;fill:#009696;stroke:#009696;stroke-width:1px;stroke-linecap:butt;stroke-miterlimit:2;">AFT<tspan x="888.243px 896.004px " y="180.488px 180.488px "> E</tspan>XT<tspan x="949.825px 957.586px " y="180.488px 180.488px "> P</tspan>WR</text><text x="168.076px" y="180.475px" style="font-family:'ArialMT', 'Arial', sans-serif;font-size:27.902px;fill:#009696;stroke:#009696;stroke-width:1px;stroke-linecap:butt;stroke-miterlimit:2;">FWD EXT<tspan x="293.174px 300.93px " y="180.475px 180.475px "> P</tspan>WR</text><text x="212.096px" y="234.215px" style="font-family:'ArialMT', 'Arial', sans-serif;font-size:27.902px;fill:#009696;stroke:#009696;stroke-width:1px;stroke-linecap:butt;stroke-miterlimit:2;">L</text><text x="306.856px" y="234.215px" style="font-family:'ArialMT', 'Arial', sans-serif;font-size:27.902px;fill:#009696;stroke:#009696;stroke-width:1px;stroke-linecap:butt;stroke-miterlimit:2;">R</text><text x="530.166px" y="635.991px" style="font-family:'ArialMT', 'Arial', sans-serif;font-size:27.902px;fill:#009696;stroke:#009696;stroke-width:1px;stroke-linecap:butt;stroke-miterlimit:2;">AC BUSES</text><text x="902.41px" y="844.993px" style="font-family:'ArialMT', 'Arial', sans-serif;font-size:27.902px;fill:#009696;stroke:#009696;stroke-width:1px;stroke-linecap:butt;stroke-miterlimit:2;">GEN</text><text x="895.608px" y="873.993px" style="font-family:'ArialMT', 'Arial', sans-serif;font-size:27.902px;fill:#009696;stroke:#009696;stroke-width:1px;stroke-linecap:butt;stroke-miterlimit:2;">CTRL</text><text x="829.126px" y="873.993px" style="font-family:'ArialMT', 'Arial', sans-serif;font-size:27.902px;fill:#009696;stroke:#009696;stroke-width:1px;stroke-linecap:butt;stroke-miterlimit:2;">L1</text><text x="1004.41px" y="874.334px" style="font-family:'ArialMT', 'Arial', sans-serif;font-size:27.902px;fill:#009696;stroke:#009696;stroke-width:1px;stroke-linecap:butt;stroke-miterlimit:2;">R1</text><rect x="291.633" y="885.767" width="70.032" height="81.001" style="stroke:#fff;stroke-width:2.67px;"/><rect x="181.31" y="885.767" width="70.032" height="81.001" style="stroke:#fff;stroke-width:2.67px;"/><rect x="173.079" y="990.767" width="86.494" height="85.001" style="stroke:#fff;stroke-width:2.67px;"/><rect x="285.403" y="990.767" width="86.494" height="85.001" style="stroke:#fff;stroke-width:2.67px;"/><text x="170.835px" y="1109.01px" style="font-family:'ArialMT', 'Arial', sans-serif;font-size:27.921px;fill:#009696;stroke:#009696;stroke-width:1px;stroke-linecap:butt;stroke-miterlimit:2;">R<tspan x="192.961px 210px 218.513px 235.552px 244.064px 267.895px 288.33px 310.456px 318.968px 336.008px 344.52px 366.645px " y="1109.01px 1109.01px 1109.01px 1109.01px 1109.01px 1109.01px 1109.01px 1109.01px 1109.01px 1109.01px 1109.01px 1109.01px ">1 – GEN – R2</tspan></text><text x="229.476px" y="1142.01px" style="font-family:'ArialMT', 'Arial', sans-serif;font-size:27.921px;fill:#009696;stroke:#009696;stroke-width:1px;stroke-linecap:butt;stroke-miterlimit:2;">DRIVE</text><text x="241.109px" y="844.993px" style="font-family:'ArialMT', 'Arial', sans-serif;font-size:27.902px;fill:#009696;stroke:#009696;stroke-width:1px;stroke-linecap:butt;stroke-miterlimit:2;">GEN</text><text x="234.308px" y="873.993px" style="font-family:'ArialMT', 'Arial', sans-serif;font-size:27.902px;fill:#009696;stroke:#009696;stroke-width:1px;stroke-linecap:butt;stroke-miterlimit:2;">CTRL</text><text x="167.826px" y="873.993px" style="font-family:'ArialMT', 'Arial', sans-serif;font-size:27.902px;fill:#009696;stroke:#009696;stroke-width:1px;stroke-linecap:butt;stroke-miterlimit:2;">L1</text><text x="343.109px" y="874.334px" style="font-family:'ArialMT', 'Arial', sans-serif;font-size:27.902px;fill:#009696;stroke:#009696;stroke-width:1px;stroke-linecap:butt;stroke-miterlimit:2;">R1</text><text x="538.344px" y="79.987px" style="font-family:'ArialMT', 'Arial', sans-serif;font-size:27.902px;fill:#009696;stroke:#009696;stroke-width:1px;stroke-linecap:butt;stroke-miterlimit:2;">APU GEN</text><text x="542.963px" y="121.001px" style="font-family:'ArialMT', 'Arial', sans-serif;font-size:27.902px;fill:#009696;stroke:#009696;stroke-width:1px;stroke-linecap:butt;stroke-miterlimit:2;">L</text><text x="635.301px" y="120.987px" style="font-family:'ArialMT', 'Arial', sans-serif;font-size:27.883px;fill:#009696;stroke:#009696;stroke-width:1px;stroke-linecap:butt;stroke-miterlimit:2;">R</text><text x="250.453px" y="1375px" style="font-family:'ArialMT', 'Arial', sans-serif;font-size:27.883px;fill:#fff;stroke:#fff;stroke-width:1px;stroke-linecap:butt;stroke-miterlimit:2;">26</text><text x="250.453px" y="1412px" style="font-family:'ArialMT', 'Arial', sans-serif;font-size:27.883px;fill:#fff;stroke:#fff;stroke-width:1px;stroke-linecap:butt;stroke-miterlimit:2;">13  CHG</text><text x="960.436px" y="1375.35px" style="font-family:'ArialMT', 'Arial', sans-serif;font-size:28.453px;fill:#fff;stroke:#fff;stroke-width:1px;stroke-linecap:butt;stroke-miterlimit:2;">28</text><text x="960.436px" y="1412.16px" style="font-family:'ArialMT', 'Arial', sans-serif;font-size:28.453px;fill:#fff;stroke:#fff;stroke-width:1px;stroke-linecap:butt;stroke-miterlimit:2;">0</text></svg>