<?xml version="1.0" encoding="UTF-8" standalone="no"?>
<!DOCTYPE svg PUBLIC "-//W3C//DTD SVG 1.1//EN" "http://www.w3.org/Graphics/SVG/1.1/DTD/svg11.dtd">
<svg width="100%" height="100%" viewBox="0 0 1200 1590" version="1.1" xmlns="http://www.w3.org/2000/svg" xmlns:xlink="http://www.w3.org/1999/xlink" xml:space="preserve" xmlns:serif="http://www.serif.com/" style="fill-rule:evenodd;clip-rule:evenodd;stroke-linecap:round;stroke-linejoin:round;stroke-miterlimit:1.5;">
    <rect x="2.075" y="2.078" width="1195.54" height="1587.92" style="stroke:rgb(0,150,150);stroke-width:3.92px;"/>
    <text x="67.576px" y="989.906px" style="font-family:'ArialMT', 'Arial', sans-serif;font-size:35.213px;fill:white;">ICH M<tspan x="167.212px " y="989.906px ">A</tspan>CH <tspan x="251.237px " y="989.906px ">D</tspan>AS <tspan x="333.323px " y="989.906px ">E</tspan>INF<tspan x="411.49px 434.948px " y="989.906px 989.906px ">AC</tspan>H M<tspan x="524.812px 548.27px 566.523px 576.294px " y="989.906px 989.906px 989.906px 989.906px ">AL H</tspan>IER<tspan x="660.319px " y="989.906px "> </tspan>WER<tspan x="752.141px " y="989.906px "> </tspan>WEIẞ<tspan x="853.047px 862.819px 894.707px 918.164px " y="989.906px 989.906px 989.906px 989.906px "> WAN</tspan>N</text>
    <text x="65.31px" y="1033.35px" style="font-family:'ArialMT', 'Arial', sans-serif;font-size:35.213px;fill:white;">ES BR<tspan x="170.853px " y="1033.35px ">A</tspan>UCH<tspan x="270.505px " y="1033.35px ">T</tspan>?</text>
    <path d="M1156.51,74.206C1156.51,71.56 1155.46,69.023 1153.59,67.153C1151.72,65.282 1149.19,64.231 1146.55,64.231L53.146,64.231C50.503,64.231 47.969,65.282 46.101,67.153C44.232,69.023 43.183,71.56 43.183,74.206L43.183,342.903C43.183,345.549 44.232,348.086 46.101,349.957C47.969,351.827 50.503,352.878 53.146,352.878L1146.55,352.878C1149.19,352.878 1151.72,351.827 1153.59,349.957C1155.46,348.086 1156.51,345.549 1156.51,342.903L1156.51,74.206Z" style="fill:none;stroke:rgb(0,150,150);stroke-width:6.64px;"/>
    <path d="M1156.51,832.784C1156.51,828.513 1152.05,825.051 1146.55,825.051L53.146,825.051C47.643,825.051 43.183,828.513 43.183,832.784L43.183,1505.63C43.183,1509.91 47.643,1513.37 53.146,1513.37L1146.55,1513.37C1152.05,1513.37 1156.51,1509.91 1156.51,1505.63L1156.51,832.784Z" style="fill:none;stroke:rgb(0,150,150);stroke-width:5.94px;"/>
    <path d="M1156.51,416.276C1156.51,413.63 1155.46,411.093 1153.59,409.222C1151.72,407.352 1149.19,406.301 1146.55,406.301L53.146,406.301C50.503,406.301 47.969,407.352 46.101,409.222C44.232,411.093 43.183,413.63 43.183,416.276L43.183,576.033C43.183,578.678 44.232,581.216 46.101,583.086C47.969,584.957 50.503,586.008 53.146,586.008L1146.55,586.008C1149.19,586.008 1151.72,584.957 1153.59,583.086C1155.46,581.216 1156.51,578.678 1156.51,576.033L1156.51,416.276Z" style="fill:none;stroke:rgb(0,150,150);stroke-width:6.64px;"/>
    <path d="M418.374,649.408C418.374,646.762 417.325,644.225 415.456,642.354C413.588,640.483 411.054,639.433 408.411,639.433L53.142,639.433C50.5,639.433 47.966,640.483 46.098,642.354C44.229,644.225 43.18,646.762 43.18,649.408L43.18,761.649C43.18,764.295 44.229,766.832 46.098,768.703C47.966,770.574 50.5,771.624 53.142,771.624L408.411,771.624C411.054,771.624 413.588,770.574 415.456,768.703C417.325,766.832 418.374,764.295 418.374,761.649L418.374,649.408Z" style="fill:none;stroke:rgb(0,150,150);stroke-width:6.64px;"/>
    <path d="M1156.51,649.408C1156.51,643.899 1152.05,639.433 1146.55,639.433L472.696,639.433C467.194,639.433 462.733,643.899 462.733,649.408L462.733,761.649C462.733,767.158 467.194,771.624 472.696,771.624L1146.55,771.624C1152.05,771.624 1156.51,767.158 1156.51,761.649L1156.51,649.408Z" style="fill:none;stroke:rgb(0,150,150);stroke-width:6.64px;"/>
    <rect x="146.239" y="626.393" width="171.508" height="26.083" style="stroke:black;stroke-width:6.64px;"/>
    <rect x="653.866" y="626.393" width="311.482" height="26.083" style="stroke:black;stroke-width:6.64px;"/>
    <rect x="414.427" y="812.017" width="367.613" height="26.083" style="stroke:black;stroke-width:6.64px;"/>
    <rect x="561.045" y="395.074" width="79.88" height="26.083" style="stroke:black;stroke-width:6.64px;"/>
    <rect x="497.77" y="51.189" width="206.702" height="26.083" style="stroke:black;stroke-width:6.64px;"/>
    <text x="510.01px" y="75.295px" style="font-family:'ArialMT', 'Arial', sans-serif;font-size:30.913px;fill:rgb(0,150,150);">HYDR<tspan x="597.492px " y="75.295px ">A</tspan>ULIC</text>
    <text x="568.859px" y="417.712px" style="font-family:'ArialMT', 'Arial', sans-serif;font-size:31.431px;fill:rgb(0,150,150);">APU</text>
    <text x="156.129px" y="652.044px" style="font-family:'ArialMT', 'Arial', sans-serif;font-size:35.213px;fill:rgb(0,150,150);">OXYG<tspan x="257.756px " y="652.044px ">E</tspan>N</text>
    <text x="664.82px" y="650.515px" style="font-family:'ArialMT', 'Arial', sans-serif;font-size:35.213px;fill:rgb(0,150,150);">LIQU<tspan x="746.905px " y="650.515px ">I</tspan>D CO<tspan x="844.6px " y="650.515px ">O</tspan>LIN<tspan x="926.685px " y="650.515px ">G</tspan></text>
    <text x="429.628px" y="837.653px" style="font-family:'ArialMT', 'Arial', sans-serif;font-size:35.213px;fill:rgb(0,150,150);">ST</text>
    <text x="471.96px" y="837.653px" style="font-family:'ArialMT', 'Arial', sans-serif;font-size:35.213px;fill:rgb(0,150,150);">A<tspan x="492.807px 514.29px " y="837.653px 837.653px ">TU</tspan>S M<tspan x="602.214px " y="837.653px ">E</tspan>SSA<tspan x="696.045px " y="837.653px ">G</tspan>ES</text>
    <text x="156.129px" y="652.044px" style="font-family:'ArialMT', 'Arial', sans-serif;font-size:35.213px;fill:rgb(0,150,150);">OXYG<tspan x="257.756px " y="652.044px ">E</tspan>N</text>
    <text x="166.769px" y="214.121px" style="font-family:'ArialMT', 'Arial', sans-serif;font-size:35.213px;fill:rgb(0,150,150);">QTY</text>
    <text x="165.567px" y="284.624px" style="font-family:'ArialMT', 'Arial', sans-serif;font-size:35.213px;fill:rgb(0,150,150);">PRES<tspan x="261.339px " y="284.624px ">S</tspan></text>
    <text x="79.777px" y="524.933px" style="font-family:'ArialMT', 'Arial', sans-serif;font-size:35.213px;fill:rgb(0,150,150);">OIL</text>
    <text x="135.159px" y="524.933px" style="font-family:'ArialMT', 'Arial', sans-serif;font-size:35.213px;fill:rgb(0,150,150);">PRES<tspan x="230.93px " y="524.933px ">S</tspan></text>
    <text x="65.516px" y="740.008px" style="font-family:'ArialMT', 'Arial', sans-serif;font-size:35.213px;fill:rgb(0,150,150);">CREW<tspan x="172.965px " y="740.008px "> </tspan>PRE<tspan x="255.05px " y="740.008px ">S</tspan>S</text>
    <text x="65.516px" y="902.129px" style="font-family:'ArialMT', 'Arial', sans-serif;font-size:35.213px;fill:white;">LEON<tspan x="161.287px " y="902.129px "> </tspan>STIN<tspan x="251.169px 274.627px 295.474px 305.245px " y="902.129px 902.129px 902.129px 902.129px ">KT N</tspan>ACH<tspan x="404.898px 414.034px 434.881px 462.237px " y="902.129px 902.129px 902.129px 902.129px "> TOA</tspan>ST</text>
    <text x="65.327px" y="945.588px" style="font-family:'ArialMT', 'Arial', sans-serif;font-size:35.213px;fill:white;">UND <tspan x="151.293px " y="945.588px ">H</tspan>IER<tspan x="235.318px " y="945.588px "> </tspan>NOC<tspan x="323.242px " y="945.588px ">H</tspan> EIN<tspan x="417.039px " y="945.588px ">E</tspan> NA<tspan x="499.124px " y="945.588px ">C</tspan>HRI<tspan x="585.09px " y="945.588px ">C</tspan>HT<tspan x="656.733px 666.505px " y="945.588px 945.588px "> W</tspan>OW<tspan x="760.25px " y="945.588px ">!</tspan></text>
    <text x="497.101px" y="739.915px" style="font-family:'ArialMT', 'Arial', sans-serif;font-size:35.213px;fill:rgb(0,150,150);">QTY</text>
    <text x="320.63px" y="740.528px" style="font-family:'ArialMT', 'Arial', sans-serif;font-size:36.389px;fill:white;">1850</text>
    <text x="295.237px" y="524.167px" style="font-family:'ArialMT', 'Arial', sans-serif;font-size:36.413px;fill:white;">21 PS<tspan x="394.308px " y="524.167px ">I</tspan></text>
    <text x="500.825px" y="524.933px" style="font-family:'ArialMT', 'Arial', sans-serif;font-size:35.213px;fill:rgb(0,150,150);">OIL</text>
    <text x="556.208px" y="524.933px" style="font-family:'ArialMT', 'Arial', sans-serif;font-size:35.213px;fill:rgb(0,150,150);">TEMP</text>
    <text x="694.425px" y="524.902px" style="font-family:'ArialMT', 'Arial', sans-serif;font-size:36.413px;fill:white;">235 C</text>
    <text x="865.881px" y="524.167px" style="font-family:'ArialMT', 'Arial', sans-serif;font-size:35.213px;fill:rgb(0,150,150);">OIL</text>
    <text x="921.261px" y="524.167px" style="font-family:'ArialMT', 'Arial', sans-serif;font-size:35.213px;fill:rgb(0,150,150);">QTY</text>
    <text x="1033.11px" y="525.684px" style="font-family:'ArialMT', 'Arial', sans-serif;font-size:36.413px;fill:white;">12.50</text>
    <text x="414.427px" y="152.458px" style="font-family:'ArialMT', 'Arial', sans-serif;font-size:31.147px;fill:rgb(0,150,150);">L</text>
    <text x="680.825px" y="152.458px" style="font-family:'ArialMT', 'Arial', sans-serif;font-size:31.147px;fill:rgb(0,150,150);">C</text>
    <text x="947.225px" y="152.458px" style="font-family:'ArialMT', 'Arial', sans-serif;font-size:31.147px;fill:rgb(0,150,150);">R</text>
    <text x="392.439px" y="210.855px" style="font-family:'ArialMT', 'Arial', sans-serif;font-size:31.147px;fill:white;">1.00</text>
    <text x="392.439px" y="283.024px" style="font-family:'ArialMT', 'Arial', sans-serif;font-size:31.147px;fill:white;">4860</text>
    <text x="658.164px" y="283.024px" style="font-family:'ArialMT', 'Arial', sans-serif;font-size:31.147px;fill:white;">4990</text>
    <text x="925.428px" y="281.374px" style="font-family:'ArialMT', 'Arial', sans-serif;font-size:31.147px;fill:white;">5000</text>
    <text x="660.995px" y="210.855px" style="font-family:'ArialMT', 'Arial', sans-serif;font-size:31.147px;fill:white;">1.00</text>
    <text x="928.262px" y="210.855px" style="font-family:'ArialMT', 'Arial', sans-serif;font-size:31.147px;fill:white;">1.00</text>
    <text x="359.723px" y="463.19px" style="font-family:'ArialMT', 'Arial', sans-serif;font-size:31.147px;fill:rgb(0,150,150);">RPM</text>
    <text x="740.318px" y="463.19px" style="font-family:'ArialMT', 'Arial', sans-serif;font-size:31.147px;fill:rgb(0,150,150);">EGT</text>
    <text x="904.846px" y="463.569px" style="font-family:'ArialMT', 'Arial', sans-serif;font-size:32.187px;fill:white;">-9c</text>
    <text x="515.098px" y="462.797px" style="font-family:'ArialMT', 'Arial', sans-serif;font-size:32.187px;fill:white;">5.9</text>
    <text x="628.329px" y="695.258px" style="font-family:'ArialMT', 'Arial', sans-serif;font-size:36.389px;fill:rgb(0,150,150);">L</text>
    <text x="947.64px" y="695.258px" style="font-family:'ArialMT', 'Arial', sans-serif;font-size:36.389px;fill:rgb(0,150,150);">R</text>
    <text x="630.991px" y="741.968px" style="font-family:'ArialMT', 'Arial', sans-serif;font-size:38.55px;fill:white;">0.98</text>
    <text x="948.899px" y="741.968px" style="font-family:'ArialMT', 'Arial', sans-serif;font-size:38.55px;fill:white;">0.99</text>
</svg>
